<?xml version="1.0" encoding="UTF-8"?>
<svg width="24px" height="24px" viewBox="0 0 24 24" version="1.1" xmlns="http://www.w3.org/2000/svg" xmlns:xlink="http://www.w3.org/1999/xlink">
    <!-- Generator: Sketch 64 (93537) - https://sketch.com -->
    <title>atom/icon/delete</title>
    <desc>Created with Sketch.</desc>
    <g id="atom/icon/delete" stroke="none" stroke-width="1" fill="none" fill-rule="evenodd">
        <path d="M20,6 L19.08013,21.8884061 C19.011748,23.0761169 18.0681165,24.0021398 16.9283873,24 L16.9283873,24 L7.2814076,24 C6.16153435,23.9926439 5.23429247,23.0897553 5.14938922,21.9239736 L5.14938922,21.9239736 L4,6 L20,6 Z M9.44669787,9 L8.55330213,9 C8.2477218,9 8,9.22705864 8,9.50714967 L8,9.50714967 L8,19.4928503 L8.00891444,19.5840111 C8.05576359,19.8205956 8.28167517,20 8.55330213,20 L8.55330213,20 L9.44669787,20 C9.7522782,20 10,19.7729414 10,19.4928503 L10,19.4928503 L10,9.50714967 C10,9.22705864 9.7522782,9 9.44669787,9 L9.44669787,9 Z M15.4466979,9 L14.5533021,9 C14.2477218,9 14,9.22705864 14,9.50714967 L14,9.50714967 L14,19.4928503 L14.0089144,19.5840111 C14.0557636,19.8205956 14.2816752,20 14.5533021,20 L14.5533021,20 L15.4466979,20 C15.7522782,20 16,19.7729414 16,19.4928503 L16,19.4928503 L16,9.50714967 C16,9.22705864 15.7522782,9 15.4466979,9 L15.4466979,9 Z M14.6469374,1.54543045e-13 C15.1344785,1.54543045e-13 15.5297086,0.383869938 15.5297086,0.857397504 L15.5297086,0.857397504 L15.5366824,0.964787737 C15.5914565,1.38691603 15.9621857,1.71345028 16.4115623,1.71390374 L16.4115623,1.71390374 L21.1172287,1.71390374 C21.6047698,1.71390374 22,2.09777368 22,2.57130125 L22,2.57130125 L22,3.1426025 C22,3.61613006 21.6047698,4 21.1172287,4 L21.1172287,4 L2.88277128,4 C2.39523016,4 2,3.61613006 2,3.1426025 L2,3.1426025 L2,2.57130125 C2.00050643,2.09812178 2.3955883,1.71479475 2.88277128,1.71479501 L2.88277128,1.71479501 L7.58752007,1.71479501 C8.07506119,1.71479501 8.47029135,1.33092507 8.47029135,0.857397504 L8.47029135,0.857397504 L8.47716939,0.749847383 C8.53164221,0.327084444 8.90302468,1.54543045e-13 9.35306263,1.54543045e-13 L9.35306263,1.54543045e-13 Z" id="Combined-Shape" fill="#001E62" fill-rule="nonzero"></path>
    </g>
</svg>